<mxfile host="app.diagrams.net" agent="Mozilla/5.0 (Macintosh; Intel Mac OS X 10_15_7) AppleWebKit/537.36 (KHTML, like Gecko) Chrome/137.0.0.0 Safari/537.36" version="27.1.6">
  <diagram name="第 1 页" id="12M5Myu7l8NUgM6UxuhZ">
    <mxGraphModel dx="674" dy="438" grid="1" gridSize="10" guides="1" tooltips="1" connect="1" arrows="1" fold="1" page="1" pageScale="1" pageWidth="827" pageHeight="1169" math="0" shadow="0">
      <root>
        <mxCell id="0" />
        <mxCell id="1" parent="0" />
        <mxCell id="n2hKNjZKLiZzbII2VU98-1" value="&lt;font style=&quot;font-size: 18px;&quot;&gt;Orthogonal&lt;/font&gt;" style="rounded=0;whiteSpace=wrap;html=1;fillColor=#99CCFF;" vertex="1" parent="1">
          <mxGeometry x="210" y="131" width="100" height="30" as="geometry" />
        </mxCell>
        <mxCell id="n2hKNjZKLiZzbII2VU98-2" value="&lt;font style=&quot;font-size: 18px;&quot;&gt;Orthogonal&lt;/font&gt;" style="rounded=0;whiteSpace=wrap;html=1;fillColor=#99CCFF;" vertex="1" parent="1">
          <mxGeometry x="212" y="268" width="100" height="30" as="geometry" />
        </mxCell>
        <mxCell id="n2hKNjZKLiZzbII2VU98-3" value="&lt;font style=&quot;font-size: 18px;&quot;&gt;FTN&lt;/font&gt;" style="rounded=0;whiteSpace=wrap;html=1;fillColor=#CC99FF;" vertex="1" parent="1">
          <mxGeometry x="219" y="183" width="83" height="30" as="geometry" />
        </mxCell>
        <mxCell id="n2hKNjZKLiZzbII2VU98-4" value="" style="ellipse;whiteSpace=wrap;html=1;aspect=fixed;shadow=1;fillColor=none;" vertex="1" parent="1">
          <mxGeometry x="252" y="229" width="20" height="20" as="geometry" />
        </mxCell>
        <mxCell id="n2hKNjZKLiZzbII2VU98-5" value="" style="endArrow=none;html=1;rounded=0;exitX=0;exitY=0.5;exitDx=0;exitDy=0;entryX=1;entryY=0.5;entryDx=0;entryDy=0;" edge="1" parent="1" source="n2hKNjZKLiZzbII2VU98-4" target="n2hKNjZKLiZzbII2VU98-4">
          <mxGeometry width="50" height="50" relative="1" as="geometry">
            <mxPoint x="432" y="354" as="sourcePoint" />
            <mxPoint x="482" y="304" as="targetPoint" />
          </mxGeometry>
        </mxCell>
        <mxCell id="n2hKNjZKLiZzbII2VU98-6" value="" style="endArrow=none;html=1;rounded=0;exitX=0.5;exitY=1;exitDx=0;exitDy=0;entryX=0.5;entryY=0;entryDx=0;entryDy=0;" edge="1" parent="1" source="n2hKNjZKLiZzbII2VU98-4" target="n2hKNjZKLiZzbII2VU98-4">
          <mxGeometry width="50" height="50" relative="1" as="geometry">
            <mxPoint x="432" y="354" as="sourcePoint" />
            <mxPoint x="482" y="304" as="targetPoint" />
          </mxGeometry>
        </mxCell>
        <mxCell id="n2hKNjZKLiZzbII2VU98-7" value="" style="endArrow=classic;html=1;rounded=0;exitX=0.5;exitY=1;exitDx=0;exitDy=0;entryX=0.5;entryY=0;entryDx=0;entryDy=0;" edge="1" parent="1" source="n2hKNjZKLiZzbII2VU98-1" target="n2hKNjZKLiZzbII2VU98-3">
          <mxGeometry width="50" height="50" relative="1" as="geometry">
            <mxPoint x="562" y="333" as="sourcePoint" />
            <mxPoint x="612" y="283" as="targetPoint" />
          </mxGeometry>
        </mxCell>
        <mxCell id="n2hKNjZKLiZzbII2VU98-8" value="" style="endArrow=classic;html=1;rounded=0;exitX=0.5;exitY=1;exitDx=0;exitDy=0;entryX=0.5;entryY=0;entryDx=0;entryDy=0;" edge="1" parent="1" source="n2hKNjZKLiZzbII2VU98-3" target="n2hKNjZKLiZzbII2VU98-4">
          <mxGeometry width="50" height="50" relative="1" as="geometry">
            <mxPoint x="562" y="333" as="sourcePoint" />
            <mxPoint x="612" y="283" as="targetPoint" />
          </mxGeometry>
        </mxCell>
        <mxCell id="n2hKNjZKLiZzbII2VU98-9" value="" style="endArrow=classic;html=1;rounded=0;exitX=0.5;exitY=1;exitDx=0;exitDy=0;entryX=0.5;entryY=0;entryDx=0;entryDy=0;" edge="1" parent="1" source="n2hKNjZKLiZzbII2VU98-4" target="n2hKNjZKLiZzbII2VU98-2">
          <mxGeometry width="50" height="50" relative="1" as="geometry">
            <mxPoint x="562" y="333" as="sourcePoint" />
            <mxPoint x="612" y="283" as="targetPoint" />
          </mxGeometry>
        </mxCell>
        <mxCell id="n2hKNjZKLiZzbII2VU98-10" value="" style="endArrow=classic;html=1;rounded=0;entryX=1;entryY=0.5;entryDx=0;entryDy=0;" edge="1" parent="1">
          <mxGeometry width="50" height="50" relative="1" as="geometry">
            <mxPoint x="260" y="174" as="sourcePoint" />
            <mxPoint x="274" y="239" as="targetPoint" />
            <Array as="points">
              <mxPoint x="320" y="174" />
              <mxPoint x="320" y="239" />
            </Array>
          </mxGeometry>
        </mxCell>
        <mxCell id="n2hKNjZKLiZzbII2VU98-11" value="&lt;font style=&quot;font-size: 18px;&quot;&gt;Partition&lt;/font&gt;" style="rounded=0;whiteSpace=wrap;html=1;fillColor=#FFCCCC;" vertex="1" parent="1">
          <mxGeometry x="219" y="80" width="83" height="30" as="geometry" />
        </mxCell>
        <mxCell id="n2hKNjZKLiZzbII2VU98-12" value="" style="endArrow=classic;html=1;rounded=0;exitX=0.5;exitY=1;exitDx=0;exitDy=0;entryX=0.5;entryY=0;entryDx=0;entryDy=0;" edge="1" parent="1" source="n2hKNjZKLiZzbII2VU98-11" target="n2hKNjZKLiZzbII2VU98-1">
          <mxGeometry width="50" height="50" relative="1" as="geometry">
            <mxPoint x="639" y="310" as="sourcePoint" />
            <mxPoint x="689" y="260" as="targetPoint" />
          </mxGeometry>
        </mxCell>
        <mxCell id="n2hKNjZKLiZzbII2VU98-25" value="&lt;font style=&quot;font-size: 18px;&quot;&gt;Orthogonal&lt;/font&gt;" style="rounded=0;whiteSpace=wrap;html=1;fillColor=#99CCFF;" vertex="1" parent="1">
          <mxGeometry x="212" y="405" width="100" height="30" as="geometry" />
        </mxCell>
        <mxCell id="n2hKNjZKLiZzbII2VU98-26" value="&lt;font style=&quot;font-size: 18px;&quot;&gt;FTN&lt;/font&gt;" style="rounded=0;whiteSpace=wrap;html=1;fillColor=#CC99FF;" vertex="1" parent="1">
          <mxGeometry x="219" y="320" width="83" height="30" as="geometry" />
        </mxCell>
        <mxCell id="n2hKNjZKLiZzbII2VU98-27" value="" style="ellipse;whiteSpace=wrap;html=1;aspect=fixed;shadow=1;fillColor=none;" vertex="1" parent="1">
          <mxGeometry x="252" y="366" width="20" height="20" as="geometry" />
        </mxCell>
        <mxCell id="n2hKNjZKLiZzbII2VU98-28" value="" style="endArrow=none;html=1;rounded=0;exitX=0;exitY=0.5;exitDx=0;exitDy=0;entryX=1;entryY=0.5;entryDx=0;entryDy=0;" edge="1" parent="1" source="n2hKNjZKLiZzbII2VU98-27" target="n2hKNjZKLiZzbII2VU98-27">
          <mxGeometry width="50" height="50" relative="1" as="geometry">
            <mxPoint x="432" y="491" as="sourcePoint" />
            <mxPoint x="482" y="441" as="targetPoint" />
          </mxGeometry>
        </mxCell>
        <mxCell id="n2hKNjZKLiZzbII2VU98-29" value="" style="endArrow=none;html=1;rounded=0;exitX=0.5;exitY=1;exitDx=0;exitDy=0;entryX=0.5;entryY=0;entryDx=0;entryDy=0;" edge="1" parent="1" source="n2hKNjZKLiZzbII2VU98-27" target="n2hKNjZKLiZzbII2VU98-27">
          <mxGeometry width="50" height="50" relative="1" as="geometry">
            <mxPoint x="432" y="491" as="sourcePoint" />
            <mxPoint x="482" y="441" as="targetPoint" />
          </mxGeometry>
        </mxCell>
        <mxCell id="n2hKNjZKLiZzbII2VU98-30" value="" style="endArrow=classic;html=1;rounded=0;exitX=0.5;exitY=1;exitDx=0;exitDy=0;entryX=0.5;entryY=0;entryDx=0;entryDy=0;" edge="1" parent="1" target="n2hKNjZKLiZzbII2VU98-26">
          <mxGeometry width="50" height="50" relative="1" as="geometry">
            <mxPoint x="260" y="298" as="sourcePoint" />
            <mxPoint x="612" y="420" as="targetPoint" />
          </mxGeometry>
        </mxCell>
        <mxCell id="n2hKNjZKLiZzbII2VU98-31" value="" style="endArrow=classic;html=1;rounded=0;exitX=0.5;exitY=1;exitDx=0;exitDy=0;entryX=0.5;entryY=0;entryDx=0;entryDy=0;" edge="1" parent="1" source="n2hKNjZKLiZzbII2VU98-26" target="n2hKNjZKLiZzbII2VU98-27">
          <mxGeometry width="50" height="50" relative="1" as="geometry">
            <mxPoint x="562" y="470" as="sourcePoint" />
            <mxPoint x="612" y="420" as="targetPoint" />
          </mxGeometry>
        </mxCell>
        <mxCell id="n2hKNjZKLiZzbII2VU98-32" value="" style="endArrow=classic;html=1;rounded=0;exitX=0.5;exitY=1;exitDx=0;exitDy=0;entryX=0.5;entryY=0;entryDx=0;entryDy=0;" edge="1" parent="1" source="n2hKNjZKLiZzbII2VU98-27" target="n2hKNjZKLiZzbII2VU98-25">
          <mxGeometry width="50" height="50" relative="1" as="geometry">
            <mxPoint x="562" y="470" as="sourcePoint" />
            <mxPoint x="612" y="420" as="targetPoint" />
          </mxGeometry>
        </mxCell>
        <mxCell id="n2hKNjZKLiZzbII2VU98-33" value="" style="endArrow=classic;html=1;rounded=0;entryX=1;entryY=0.5;entryDx=0;entryDy=0;" edge="1" parent="1">
          <mxGeometry width="50" height="50" relative="1" as="geometry">
            <mxPoint x="260" y="311" as="sourcePoint" />
            <mxPoint x="274" y="376" as="targetPoint" />
            <Array as="points">
              <mxPoint x="320" y="311" />
              <mxPoint x="320" y="376" />
            </Array>
          </mxGeometry>
        </mxCell>
        <mxCell id="n2hKNjZKLiZzbII2VU98-36" value="" style="endArrow=classic;html=1;rounded=0;fillColor=#FF3333;strokeColor=#FF3333;entryX=0.5;entryY=0;entryDx=0;entryDy=0;" edge="1" parent="1" target="n2hKNjZKLiZzbII2VU98-11">
          <mxGeometry width="50" height="50" relative="1" as="geometry">
            <mxPoint x="261" y="50" as="sourcePoint" />
            <mxPoint x="250" y="80" as="targetPoint" />
          </mxGeometry>
        </mxCell>
        <mxCell id="n2hKNjZKLiZzbII2VU98-37" value="" style="endArrow=classic;html=1;rounded=0;fillColor=#FF3333;strokeColor=#FF3333;exitX=0.5;exitY=1;exitDx=0;exitDy=0;" edge="1" parent="1">
          <mxGeometry width="50" height="50" relative="1" as="geometry">
            <mxPoint x="261" y="435" as="sourcePoint" />
            <mxPoint x="262" y="460" as="targetPoint" />
          </mxGeometry>
        </mxCell>
        <mxCell id="n2hKNjZKLiZzbII2VU98-38" value="&lt;font style=&quot;font-size: 18px;&quot;&gt;input&lt;/font&gt;" style="text;html=1;align=center;verticalAlign=middle;resizable=0;points=[];autosize=1;strokeColor=none;fillColor=none;" vertex="1" parent="1">
          <mxGeometry x="230" y="23" width="60" height="40" as="geometry" />
        </mxCell>
        <mxCell id="n2hKNjZKLiZzbII2VU98-39" value="&lt;font style=&quot;font-size: 18px;&quot;&gt;output&lt;/font&gt;" style="text;html=1;align=center;verticalAlign=middle;resizable=0;points=[];autosize=1;strokeColor=none;fillColor=none;" vertex="1" parent="1">
          <mxGeometry x="225" y="443" width="70" height="40" as="geometry" />
        </mxCell>
      </root>
    </mxGraphModel>
  </diagram>
</mxfile>
